<svg id="Capa_1" enable-background="new 0 0 512 512" height="512" viewBox="0 0 512 512" width="512" xmlns="http://www.w3.org/2000/svg"><g><path d="m512 256c0 141.385-114.615 256-256 256s-256-114.615-256-256 114.615-256 256-256 256 114.615 256 256z" fill="#ff94d2"/><path d="m470.734 231.363c0 104.235-84.499 188.735-188.735 188.735s-188.734-84.5-188.734-188.735 84.5-188.735 188.735-188.735 188.734 84.5 188.734 188.735z" fill="#ffaee0"/><path d="m316.081 401.069c-19.083-19.082-47.176-23.796-70.711-14.142 9.654-23.535 4.94-51.628-14.142-70.71-25.343-25.343-66.581-25.343-91.924 0s-25.343 66.581 0 91.924c19.082 19.083 47.176 23.796 70.711 14.142-9.654 23.535-4.94 51.628 14.142 70.71 25.343 25.344 66.581 25.344 91.924 0s25.343-66.581 0-91.924zm-169.706 0c-21.444-21.445-21.444-56.337 0-77.782 21.445-21.445 56.337-21.445 77.782 0s21.445 56.337 0 77.782c-21.444 21.444-56.337 21.444-77.782 0zm162.635 84.852c-21.445 21.445-56.337 21.445-77.782 0-21.445-21.444-21.445-56.337 0-77.782 21.444-21.444 56.337-21.444 77.782 0 21.445 21.445 21.445 56.338 0 77.782z" fill="#6a61b4"/><path d="m274.362 380.563-59.217 59.217c-3.905 3.905-10.237 3.905-14.142 0l-8.485-8.485c-3.905-3.905-3.905-10.237 0-14.142l59.217-59.217c3.905-3.905 10.237-3.905 14.142 0l8.485 8.485c3.905 3.905 3.905 10.236 0 14.142z" fill="#453d83"/><path d="m510.535 128.833-127.279 127.279c-1.953 1.953-5.118 1.953-7.071 0s-1.953-5.118 0-7.071l127.279-127.279c1.953-1.953 5.118-1.953 7.071 0s1.953 5.118 0 7.071z" fill="#8078bf"/><path d="m436.996 217.928-49.498 49.498c-3.905 3.905-10.237 3.905-14.142 0l-8.485-8.485c-3.905-3.905-3.905-10.237 0-14.142l49.498-49.498c3.905-3.905 10.237-3.905 14.142 0l8.485 8.485c3.905 3.905 3.905 10.237 0 14.142z" fill="#453d83"/><path d="m418.965 256.465-134.35 134.35c-3.905 3.905-10.237 3.905-14.142 0l-28.991-28.991c-3.905-3.905-3.905-10.237 0-14.142l134.35-134.35c3.905-3.905 10.237-3.905 14.142 0l28.991 28.991c3.905 3.905 3.905 10.237 0 14.142z" fill="#6a61b4"/><path d="m418.965 256.465-93.161 93.161c-7.127 7.127-18.682 7.127-25.809 0-7.127-7.127-7.127-18.682 0-25.809l93.161-93.162c3.905-3.905 10.237-3.905 14.142 0l11.667 11.667c3.905 3.906 3.905 10.238 0 14.143z" fill="#8078bf"/><path d="m231.935 451.273c3.905 3.905 3.905 10.237 0 14.142s-10.237 3.905-14.142 0l-50.912-50.912c-3.905-3.905-3.905-10.237 0-14.142s10.237-3.905 14.142 0zm77.075-36.062-91.924-91.924c-3.905-3.905-10.237-3.905-14.142 0-3.905 3.905-3.905 10.237 0 14.142l91.924 91.924c3.905 3.905 10.237 3.905 14.142 0s3.905-10.237 0-14.142z" fill="#51489a"/><path d="m294.161 414.504c-3.905 3.905-10.237 3.905-14.142 0l-22.627-22.627c-3.905-3.905-3.905-10.237 0-14.142 3.905-3.905 10.237-3.905 14.142 0l22.627 22.627c3.905 3.905 3.905 10.236 0 14.142z" fill="#5f55af"/><path d="m345.072 295.71c1.953 1.953 1.953 5.118 0 7.071s-5.118 1.953-7.071 0l-8.485-8.485c-1.953-1.953-1.953-5.118 0-7.071 1.953-1.952 5.118-1.952 7.071 0zm-22.627 5.657c-1.952-1.953-5.118-1.953-7.071 0s-1.953 5.118 0 7.071l8.485 8.485c1.953 1.953 5.118 1.953 7.071 0s1.953-5.118 0-7.071zm-16.971 11.313c-1.953-1.953-5.118-1.953-7.071 0s-1.953 5.119 0 7.071l14.142 14.142c1.953 1.953 5.119 1.953 7.071 0 1.952-1.953 1.952-5.119 0-7.071zm98.995-70.71-14.142-14.142c-1.953-1.952-5.118-1.952-7.071 0-1.953 1.953-1.953 5.118 0 7.071l14.142 14.142c1.952 1.952 5.118 1.952 7.071 0 1.953-1.953 1.953-5.119 0-7.071zm-56.568 28.284c-1.953-1.953-5.119-1.953-7.071 0-1.953 1.953-1.953 5.118 0 7.071l14.142 14.142c1.953 1.953 5.118 1.953 7.071 0s1.953-5.118 0-7.071zm31.112-25.456c-1.952-1.953-5.118-1.953-7.071 0s-1.953 5.118 0 7.071l8.485 8.485c1.953 1.953 5.118 1.953 7.071 0s1.953-5.119 0-7.071zm-14.142 14.142c-1.953-1.953-5.118-1.953-7.071 0s-1.953 5.118 0 7.071l8.485 8.485c1.953 1.953 5.118 1.953 7.071 0s1.953-5.119 0-7.071z" fill="#aba6d5"/><path d="m114.216 171.646 98.995 98.995c5.858 5.858 5.858 15.355 0 21.213l-28.284 28.284c-5.858 5.858-15.355 5.858-21.213 0l-98.995-98.995c-5.858-5.858-5.858-15.355 0-21.213.182-.182-.002-.491-.246-.409-6.261 2.112-13.537.077-17.659-5.751l-43.962-62.152c-4.369-6.176-3.652-14.602 1.698-19.951 5.335-5.335 13.733-6.064 19.907-1.729l62.342 43.772c5.859 4.114 7.912 11.411 5.795 17.69-.082.244.227.428.409.246 5.857-5.858 15.355-5.858 21.213 0zm237.341-49.878c-.182-.182.003-.491.246-.409 6.279 2.117 13.576.064 17.69-5.795l43.772-62.342c4.336-6.175 3.606-14.572-1.729-19.907-5.35-5.35-13.775-6.067-19.951-1.698l-62.153 43.961c-5.827 4.122-7.862 11.397-5.751 17.659.082.244-.227.428-.409.246-5.858-5.858-15.355-5.858-21.213 0l-98.995 98.995c-5.858 5.858-5.858 15.355 0 21.213l28.284 28.284c5.858 5.858 15.355 5.858 21.213 0l98.995-98.995c5.859-5.856 5.859-15.354.001-21.212z" fill="#5f55af"/><path d="m114.216 171.646 70.861 70.861c5.858 5.858 5.858 15.355 0 21.213l-9.99 9.99c-5.858 5.858-15.355 5.858-21.213 0l-70.861-70.861c-3.446-3.446-4.865-8.152-4.256-12.635.329-2.424-1.551-4.663-3.996-4.574-5.023.184-10.083-2.055-13.264-6.552l-43.961-62.153c-2.083-2.946-3.009-6.403-2.828-9.795 3.374-.18 6.814.736 9.75 2.798l62.342 43.772c5.859 4.114 7.912 11.411 5.795 17.69-.082.244.227.428.409.246 5.856-5.858 15.354-5.858 21.212 0zm237.341-49.878c-.182-.182.002-.491.246-.409 6.279 2.117 13.576.064 17.69-5.795l43.772-62.342c2.062-2.937 2.978-6.377 2.798-9.75-3.391-.181-6.849.745-9.795 2.828l-62.153 43.961c-5.155 3.647-7.342 9.761-6.316 15.459.263 1.462-1.068 2.735-2.489 2.306-5.122-1.547-10.908-.296-14.956 3.752l-70.861 70.861c-5.858 5.858-5.858 15.355 0 21.213l9.99 9.99c5.858 5.858 15.355 5.858 21.213 0l70.861-70.861c5.858-5.857 5.858-15.355 0-21.213z" fill="#8078bf"/><path d="m189.139 273.439c5.858 5.858 5.858 15.355 0 21.213l-1.414 1.414c-5.858 5.858-15.355 5.858-21.213 0l-63.579-63.58c-5.858-5.858-5.858-15.355 0-21.213l1.414-1.414c5.858-5.858 15.355-5.858 21.213 0zm124.205-140.327-1.414-1.414c-5.858-5.858-15.355-5.858-21.213 0l-63.58 63.579c-5.858 5.858-5.858 15.355 0 21.213l1.414 1.414c5.858 5.858 15.355 5.858 21.213 0l63.58-63.579c5.857-5.857 5.857-15.355 0-21.213z" fill="#93dcfc"/><path d="m175.057 259.357c5.858 5.858 5.858 15.355 0 21.213l-1.414 1.414c-5.858 5.858-15.355 5.858-21.213 0l-49.497-49.498c-5.858-5.858-5.858-15.355 0-21.213l1.414-1.414c5.858-5.858 15.355-5.858 21.213 0zm138.287-126.245-1.414-1.414c-5.858-5.858-15.355-5.858-21.213 0l-49.498 49.498c-5.858 5.858-5.858 15.355 0 21.213l1.414 1.414c5.858 5.858 15.355 5.858 21.213 0l49.498-49.497c5.857-5.858 5.857-15.356 0-21.214z" fill="#b4e7fd"/><path d="m401.262 365.578c-1.953 1.953-5.118 1.953-7.071 0l-14.142-14.142c-1.953-1.953-1.953-5.118 0-7.071s5.118-1.953 7.071 0l14.142 14.142c1.953 1.953 1.953 5.119 0 7.071zm-29.32-6.893c0-2.761-2.239-5-5-5-2.761 0-5 2.239-5 5v20c0 2.761 2.239 5 5 5s5-2.239 5-5zm17.427-27.426c0 2.761 2.239 5 5 5h20c2.761 0 5-2.239 5-5s-2.239-5-5-5h-20c-2.762 0-5 2.238-5 5zm-299.35-12.872c0-2.761-2.239-5-5-5h-20c-2.761 0-5 2.239-5 5s2.239 5 5 5h20c2.761 0 5-2.238 5-5zm-11.465-37.071c-1.953-1.953-5.118-1.953-7.071 0s-1.953 5.118 0 7.071l14.142 14.142c1.953 1.953 5.118 1.953 7.071 0 1.953-1.953 1.953-5.118 0-7.071zm14.142 52.929c-1.953-1.953-5.118-1.953-7.071 0l-14.142 14.142c-1.953 1.953-1.953 5.118 0 7.071s5.118 1.953 7.071 0l14.142-14.142c1.953-1.952 1.953-5.118 0-7.071z" fill="#fff"/></g></svg>