<svg id="Layer_1" data-name="Layer 1" xmlns="http://www.w3.org/2000/svg" viewBox="0 0 400 300" width="406" height="306" class="illustration styles_illustrationTablet__1DWOa"><title>_</title><ellipse cx="200" cy="254.98" rx="154.11" ry="19.67" fill="#e6e6e6" opacity="0.3"></ellipse><rect x="112.91" y="54.49" width="212.4" height="147.5" fill="#ccc"></rect><rect x="130.89" y="68.31" width="92.9" height="113.53" fill="#e6e6e6"></rect><g opacity="0.39"><rect x="182.22" y="86.09" width="9" height="2.84" fill="#c9c9c9"></rect><rect x="194.28" y="86.09" width="22.5" height="2.84" fill="#c9c9c9"></rect><rect x="182.22" y="95.27" width="22.41" height="2.84" fill="#c9c9c9"></rect><rect x="207.51" y="95.27" width="9.27" height="2.84" fill="#c9c9c9"></rect><rect x="193.47" y="104.45" width="23.31" height="2.84" fill="#c9c9c9"></rect><rect x="182.22" y="104.45" width="8.73" height="2.84" fill="#c9c9c9"></rect><rect x="182.22" y="113.62" width="26.73" height="2.84" fill="#c9c9c9"></rect></g><rect x="138.49" y="86.09" width="35.36" height="38.98" fill="#c9c9c9" opacity="0.39"></rect><rect x="130.89" y="68.31" width="92.9" height="10.4" fill="#E64470"></rect><rect x="186.36" y="134.65" width="30.42" height="2.62" fill="#c9c9c9" opacity="0.39"></rect><rect x="138.49" y="134.65" width="44.27" height="2.62" fill="#c9c9c9" opacity="0.39"></rect><rect x="195.18" y="144.71" width="21.6" height="2.62" fill="#c9c9c9" opacity="0.39"></rect><rect x="138.49" y="144.71" width="52.37" height="2.62" fill="#c9c9c9" opacity="0.39"></rect><rect x="138.49" y="154.77" width="26.64" height="2.62" fill="#c9c9c9" opacity="0.39"></rect><rect x="172.33" y="154.77" width="44.45" height="2.62" fill="#c9c9c9" opacity="0.39"></rect><rect x="138.49" y="164.83" width="68.21" height="2.62" fill="#c9c9c9" opacity="0.39"></rect><path d="M161.56,97s1.31,6.27.74,10.62a3.22,3.22,0,0,1-3.63,2.77c-2.18-.32-5-1.38-6.15-4.66L150,100.38a5.74,5.74,0,0,1,1.79-6.4C155,91,161,93.12,161.56,97Z" fill="#f4a28c"></path><polygon points="150.42 101.35 149.59 122.34 161.19 121.97 157.13 106.85 150.42 101.35" fill="#f4a28c"></polygon><path d="M160,97.44a25.71,25.71,0,0,1-5.92.24,5.37,5.37,0,0,1,.69,5.83,4.35,4.35,0,0,1-5,2.34l-.87-8.19a6.57,6.57,0,0,1,2.6-6.17,24.19,24.19,0,0,1,2.58-1.66c2.24-1.22,5.87-.06,7.8-1.9a1.54,1.54,0,0,1,2.55.72c.66,2.44.68,6.41-2.52,8.17A6,6,0,0,1,160,97.44Z" fill="#ffd200"></path><path d="M155.45,103.24s-.34-2.45-2.16-2-1.35,3.94,1.19,4Z" fill="#f4a28c"></path><path d="M162.18,101l2.07,2.25a1,1,0,0,1-.45,1.67l-2.38.75Z" fill="#f4a28c"></path><path d="M158.16,110.12a7.63,7.63,0,0,1-4-1.78s.62,3.8,5.26,7.07Z" fill="#ce8172" opacity="0.31"></path><path d="M152.35,119.07H160a4.93,4.93,0,0,1,4.93,4.93v1.1a0,0,0,0,1,0,0h-17.5a0,0,0,0,1,0,0V124a4.93,4.93,0,0,1,4.93-4.93Z" fill="#E64470"></path><rect x="241.19" y="95.55" width="75.81" height="92.63" opacity="0.08"></rect><rect x="233.83" y="86.36" width="75.81" height="92.63" fill="#e6e6e6"></rect><g opacity="0.39"><rect x="275.71" y="100.87" width="7.34" height="2.31" fill="#c9c9c9"></rect><rect x="285.55" y="100.87" width="18.36" height="2.31" fill="#c9c9c9"></rect><rect x="275.71" y="108.36" width="18.28" height="2.31" fill="#c9c9c9"></rect><rect x="296.34" y="108.36" width="7.56" height="2.31" fill="#c9c9c9"></rect><rect x="284.89" y="115.85" width="19.02" height="2.31" fill="#c9c9c9"></rect><rect x="275.71" y="115.85" width="7.12" height="2.31" fill="#c9c9c9"></rect><rect x="275.71" y="123.34" width="21.81" height="2.31" fill="#c9c9c9"></rect></g><rect x="240.03" y="100.87" width="28.86" height="31.81" fill="#c9c9c9" opacity="0.39"></rect><rect x="233.83" y="86.36" width="75.81" height="8.49" fill="#E64470"></rect><rect x="279.09" y="140.5" width="24.82" height="2.14" fill="#c9c9c9" opacity="0.39"></rect><rect x="240.03" y="140.5" width="36.13" height="2.14" fill="#c9c9c9" opacity="0.39"></rect><rect x="286.28" y="148.7" width="17.62" height="2.14" fill="#c9c9c9" opacity="0.39"></rect><rect x="240.03" y="148.7" width="42.73" height="2.14" fill="#c9c9c9" opacity="0.39"></rect><rect x="240.03" y="156.91" width="21.73" height="2.14" fill="#c9c9c9" opacity="0.39"></rect><rect x="267.63" y="156.91" width="36.27" height="2.14" fill="#c9c9c9" opacity="0.39"></rect><rect x="240.03" y="165.12" width="55.66" height="2.14" fill="#c9c9c9" opacity="0.39"></rect><path d="M260.74,109.41a34.56,34.56,0,0,1,.64,9.15,2.78,2.78,0,0,1-3.13,2.38,6.12,6.12,0,0,1-5.3-4l-2.21-4.6a5,5,0,0,1,1.55-5.51C255.12,104.23,260.22,106.08,260.74,109.41Z" fill="#f4a28c"></path><polygon points="251.14 113.17 250.43 131.24 260.42 130.93 256.93 117.9 251.14 113.17" fill="#f4a28c"></polygon><path d="M261.27,112.85l1.78,1.93a.88.88,0,0,1-.39,1.44l-2,.65Z" fill="#f4a28c"></path><path d="M257.81,120.72a6.6,6.6,0,0,1-3.43-1.53s.53,3.27,4.52,6.08Z" fill="#ce8172" opacity="0.31"></path><path d="M260.42,107s0,6.13-5.69,6.27c.1,0-.2,3.39-.22,3.56-.3,2.35.31,4.76.26,7.16a2.34,2.34,0,0,1-.25,1.2,2.26,2.26,0,0,1-1.25.79,16.69,16.69,0,0,1-8.5.5,2.44,2.44,0,0,1-2.06-3.48,18.4,18.4,0,0,1,1.11-4c.46-1.16,1.16-2.21,1.61-3.35a33.7,33.7,0,0,0,2-8,10.19,10.19,0,0,1,.52-2.45,7.31,7.31,0,0,1,2.17-2.79,4.65,4.65,0,0,1,3.26-.9C259.45,101.39,260.9,104,260.42,107Z" fill="#ffd200"></path><path d="M255.47,114.79s-.29-2.1-1.86-1.75-1.16,3.39,1,3.42Z" fill="#f4a28c"></path><path d="M247.51,127.57h15.24a0,0,0,0,1,0,0v.28a5,5,0,0,1-5,5h-5.31a5,5,0,0,1-5-5v-.28A0,0,0,0,1,247.51,127.57Z" transform="translate(510.26 260.4) rotate(-180)" fill="#E64470"></path><path d="M109,127.2a19.46,19.46,0,0,1,2.17-.79A41.81,41.81,0,0,1,122.26,125c6-.17,12.82.08,18.5,2.19,5.38,2,8.55,7,10.49,12.15.61,1.61.88,2.76,2.91,2.48A38.37,38.37,0,0,0,172.55,134c4.81-3.8,9-8.91,14.93-10.42a2.38,2.38,0,0,1,1.42,0c.79.3,1.07,1.28,1.14,2.12a14.41,14.41,0,0,1-2.35,8.51,49.23,49.23,0,0,1-5.59,7c-6.15,6.87-12,14.24-20,19a6.71,6.71,0,0,0-2.95,2.61c-1.43,3.18-.06,34.34,0,39.57h-36l-16.64-42.79c-3-7.66-10-19-4.43-26.94A15.85,15.85,0,0,1,109,127.2Z" opacity="0.08"></path><path d="M302.8,242.7s-9.62-2.63-11.71-11.57c0,0,14.9-3,15.32,12.36Z" fill="#E64470" opacity="0.58"></path><path d="M304,241.75s-6.71-10.62-.8-20.55c0,0,11.32,7.19,6.29,20.57Z" fill="#E64470" opacity="0.73"></path><path d="M305.7,241.75s3.55-11.21,14.28-13.33c0,0,2,7.28-7,13.36Z" fill="#E64470"></path><polygon points="298.73 241.5 300.68 254.83 312.95 254.88 314.76 241.57 298.73 241.5" fill="#24285b"></polygon><path d="M68.14,204.63s.81,12,6.48,8.85-1.43-8.85-1.43-8.85Z" fill="#f4a28c"></path><path d="M85.63,126.92S45.47,155.47,67.2,204.63h6S70.05,169,85.63,152.08,85.63,126.92,85.63,126.92Z" fill="#E64470"></path><path d="M85.63,126.92S45.47,155.47,67.2,204.63h6S70.05,169,85.63,152.08,85.63,126.92,85.63,126.92Z" fill="#fff" opacity="0.2"></path><polygon points="96.59 111.51 100.01 121.77 91.89 126.92 88.97 109.14 96.59 111.51" fill="#f4a28c"></polygon><path d="M86.59,103a5,5,0,0,1,8.31-1.4c2.71,2.9,6,7.51,2.28,10-5.67,3.84-10.87-3.33-10.87-3.33A9.17,9.17,0,0,1,86.59,103Z" fill="#f4a28c"></path><path d="M91.46,105.52s-1.85-1.54-2.69.65,2.43,3.26,3.4,2.15S91.46,105.52,91.46,105.52Z" fill="#f4a28c"></path><rect x="59.22" y="179" width="40.89" height="28.51" transform="matrix(0.97, -0.25, 0.25, 0.97, -46.12, 26.31)" fill="#ffd200"></rect><polygon points="76.65 179.31 83 198 82.66 207.21 91.77 204.89 95.82 188.29 84.78 177.19 76.65 179.31" opacity="0.08"></polygon><path d="M82.42,132a20.76,20.76,0,0,1,13-11.36c11-3.31,31.33.31,37.52,10.63,8.48,14.12-3.93,59-3.93,59L92,193.08S71.58,156.31,82.42,132Z" fill="#E64470"></path><polygon points="129.02 190.21 124.15 253.92 116.44 253.92 109.56 204.42 92.52 193.08 129.02 190.21" fill="#24285b"></polygon><polygon points="92.52 193.08 81.89 253.92 90.15 253.92 108 203.38 92.52 193.08" fill="#24285b"></polygon><path d="M98.63,119.62s-17.33,55.84,32.73,59.54L129,190.21,92,193.08s-13.06-20.5-12.5-49.3c0,0,.31-14.24,10.34-20.54A22.52,22.52,0,0,1,98.63,119.62Z" opacity="0.08"></path><path d="M83.82,253.79l-5,3.67a1.09,1.09,0,0,0,.65,2h8.34a1.09,1.09,0,0,0,1.09-1.09v-4.55Z" fill="#E64470"></path><path d="M123.18,253.79l4.69,3.67a1.1,1.1,0,0,1-.68,2h-5.94a3.17,3.17,0,0,1-3.17-3.17v-2.47Z" fill="#E64470"></path><path d="M86.8,110.44s1.81,3.28,4.8,2.26.84-8.08.84-8.08,3.62-5.22,3.1-9.35a2.33,2.33,0,0,0-4.41-.58,4.11,4.11,0,0,1-3.48,2.15C82.56,97.4,77.89,105.44,86.8,110.44Z" fill="#24285b"></path><path d="M122.66,123s24.23,13.62,31.78,13.62,26.39-14.21,26.39-14.21l4,8.3s-16,24.94-30.3,23-36.43-14.41-36.43-14.41Z" fill="#E64470"></path><path d="M180.83,122.44s3.53-7.27,4.7-7.18.72,2.43.72,2.43,3.78-4.23,4.86-3.6,1.17,10.08-6.3,16.65Z" fill="#f4a28c"></path><rect x="112.91" y="41.26" width="212.4" height="13.23" fill="#24285b"></rect><circle cx="132.64" cy="47.87" r="3.47" fill="#fff"></circle><circle cx="142.97" cy="47.87" r="3.47" fill="#E64470"></circle><circle cx="152.7" cy="47.87" r="3.47" fill="#ffd200"></circle><rect x="235.72" y="68.31" width="73.91" height="8.14" fill="#fff" opacity="0.2"></rect></svg>